<?xml version="1.0" encoding="iso-8859-1"?>
<!-- Uploaded to: SVG Repo, www.svgrepo.com, Generator: SVG Repo Mixer Tools -->
<svg version="1.1" id="Layer_1" xmlns="http://www.w3.org/2000/svg" xmlns:xlink="http://www.w3.org/1999/xlink" 
	 viewBox="0 0 512 512" xml:space="preserve">
<rect x="162.405" y="229.799" style="fill:#7E8488;" width="257.058" height="178.823"/>
<g>
	<rect x="100.935" y="458.916" style="fill:#AFB6BB;" width="379.999" height="44.706"/>
	<polygon style="fill:#AFB6BB;" points="184.419,90.536 113.225,161.618 85.955,134.348 157.149,63.265 	"/>
</g>
<polygon style="fill:#00AC4E;" points="176.819,43.483 157.149,63.265 85.955,134.348 66.172,154.13 34.543,122.501 145.19,11.854 
	"/>
<path style="fill:#36C63F;" d="M207.107,67.736h273.823v391.176H100.931v-285l12.294-12.294l71.194-71.082L207.107,67.736z
	 M441.813,173.912v-67.059H274.166v67.059H441.813z M419.46,408.618V229.795H162.402v178.823H419.46z"/>
<path style="fill:#00AC4E;" d="M419.46,382.172v26.446H162.402V229.795h68.851c-26.293-38.275-46.416-81.091-59.079-127.033
	l-58.949,58.856l-12.294,12.294v285h379.999v-56.771C459.776,397.012,439.239,390.334,419.46,382.172z"/>
<rect x="162.405" y="229.799" style="fill:#6D7276;" width="257.058" height="95"/>
<path d="M203.623,59.354l-19.219,19.314l-15.418-15.419l19.672-19.782L145.189,0L22.688,122.501l43.484,43.483l19.781-19.782
	l15.417,15.417l-8.823,8.823V512h396.764V59.354L203.623,59.354L203.623,59.354z M210.591,76.118h261.957V450.53H109.314V177.385
	L210.591,76.118z M172.56,90.532l-59.33,59.236l-15.417-15.416l59.33-59.237L172.56,90.532z M46.397,122.501l98.793-98.793
	l19.792,19.791l-98.81,98.777L46.397,122.501z M109.314,495.235v-27.941h363.235v27.941H109.314z"/>
<path d="M450.195,98.471H265.784v83.823h184.411V98.471z M433.431,165.53H282.549v-50.294h150.882V165.53z"/>
<path d="M154.019,417h273.823V221.412H154.019V417z M170.784,238.177h240.294v162.059H170.784V238.177z"/>
<g>
	<rect x="201.523" y="266.123" style="fill:#FFFFFF;" width="178.823" height="16.765"/>
	<rect x="201.523" y="355.534" style="fill:#FFFFFF;" width="178.823" height="16.765"/>
	<rect x="201.523" y="305.24" style="fill:#FFFFFF;" width="27.941" height="16.765"/>
	<rect x="246.228" y="305.24" style="fill:#FFFFFF;" width="27.941" height="16.765"/>
	<rect x="352.405" y="305.24" style="fill:#FFFFFF;" width="27.941" height="16.765"/>
	<polygon style="fill:#FFFFFF;" points="196.27,140.723 184.415,128.868 214.811,98.471 240.637,98.471 240.637,115.236 
		221.755,115.236 	"/>
</g>
</svg>